# xmcd
#
# Track frame offsets:
#	150
#	38950
#	113326
#	138929
#	152897
#	201644
#	203526
#	224558
#	259279
#	272378
#	274494
#	283411
#	302274
#
# Disc length: 4528 seconds
#
# Revision: 1
# Processed by: cddbd v1.5.2PL0 Copyright (c) Steve Scherf et al.
# Submitted via: audiograbber 1.83.01
#
DISCID=ca11ae0d
DTITLE=Grateful Dead - 70-11-08A Capitol Theatre, Port Chester NY
DYEAR=1900
DGENRE=
TTITLE0=Truckin'
TTITLE1=Dark Star
TTITLE2=The Main Ten
TTITLE3=Dancing In The Streets Jam
TTITLE4=Dancing In The Streets
TTITLE5=Drums
TTITLE6=Not Fade Away
TTITLE7=Going Down The Road Feeling Bad
TTITLE8=Not Fade Away
TTITLE9=Drums
TTITLE10=Good Lovin'
TTITLE11=Drums
TTITLE12=Good Lovin'
EXTD=
EXTT0=
EXTT1=
EXTT2=
EXTT3=
EXTT4=
EXTT5=
EXTT6=
EXTT7=
EXTT8=
EXTT9=
EXTT10=
EXTT11=
EXTT12=
PLAYORDER=
